<?xml version="1.0" standalone="no"?>
<!DOCTYPE svg PUBLIC "-//W3C//DTD SVG 20010904//EN"
 "http://www.w3.org/TR/2001/REC-SVG-20010904/DTD/svg10.dtd">
<svg version="1.0" xmlns="http://www.w3.org/2000/svg"
 width="1024.000000pt" height="1024.000000pt" viewBox="0 0 1024.000000 1024.000000"
 preserveAspectRatio="xMidYMid meet">

<g transform="translate(0.000000,1024.000000) scale(0.100000,-0.100000)"
fill="#000000" stroke="none">
<path d="M4855 7584 c-16 -2 -73 -9 -125 -15 -384 -44 -781 -184 -1062 -376
l-79 -53 -62 52 c-76 63 -213 130 -327 160 -75 20 -110 23 -295 23 -199 0
-216 -2 -319 -28 -342 -90 -615 -278 -843 -581 -281 -374 -350 -713 -195 -952
68 -105 162 -176 277 -210 94 -28 281 -24 409 10 102 26 280 106 378 169 l55
35 -14 -46 c-29 -97 -73 -342 -83 -466 -5 -71 -10 -208 -10 -305 0 -97 -5
-192 -10 -212 -6 -20 -32 -70 -60 -111 -154 -234 -220 -458 -207 -703 26 -484
364 -887 935 -1116 867 -349 2266 -417 3318 -163 479 116 814 279 1063 519
175 169 283 345 338 552 23 86 26 118 27 258 0 132 -4 175 -22 247 -39 158
-89 268 -203 447 l-34 54 -6 246 c-5 170 -14 291 -28 391 -22 148 -61 333 -80
383 -6 15 -8 27 -5 27 3 0 38 -20 77 -44 327 -198 630 -246 856 -135 137 67
239 214 263 378 54 370 -306 931 -767 1194 -98 57 -208 101 -334 135 -88 24
-113 26 -306 26 -175 1 -222 -2 -285 -18 -144 -37 -256 -91 -356 -172 -31 -26
-62 -43 -70 -40 -8 3 -47 27 -86 54 -261 175 -631 309 -1020 368 -98 15 -626
29 -703 18z m596 -249 c407 -46 805 -192 1090 -400 48 -35 97 -68 108 -75 41
-21 80 -2 175 89 151 143 267 189 496 198 207 8 382 -33 568 -134 273 -147
545 -461 636 -733 57 -172 43 -284 -47 -375 -65 -64 -121 -85 -228 -85 -301 0
-642 228 -963 643 -53 68 -108 129 -122 135 -97 45 -191 -43 -150 -141 8 -20
55 -100 104 -179 145 -231 207 -371 267 -600 59 -226 76 -376 80 -683 3 -272
7 -290 97 -427 117 -178 164 -309 174 -493 12 -187 -36 -363 -141 -521 -65
-97 -213 -242 -322 -314 -458 -303 -1305 -476 -2233 -457 -612 13 -1134 90
-1550 227 -488 161 -780 384 -909 694 -45 108 -63 203 -64 341 -1 191 38 315
158 496 106 159 107 166 116 489 8 300 24 434 78 642 58 223 148 420 285 621
103 151 116 177 116 223 0 47 -53 104 -96 104 -57 0 -76 -14 -150 -109 -303
-385 -578 -602 -851 -672 -94 -24 -231 -25 -296 -3 -60 20 -130 82 -158 142
-110 224 177 730 554 979 194 128 359 181 588 190 179 7 275 -10 399 -69 69
-33 100 -56 166 -123 45 -46 91 -88 104 -95 35 -18 74 -5 142 48 175 137 360
234 600 313 369 122 764 160 1179 114z"/>
<path d="M3854 6141 c-164 -26 -301 -116 -424 -280 -62 -82 -78 -128 -60 -171
17 -40 46 -60 90 -60 48 0 75 21 112 88 85 152 280 263 408 232 27 -6 69 -27
94 -47 27 -21 60 -37 85 -40 35 -5 44 -2 71 25 51 51 36 108 -44 179 -72 63
-208 93 -332 74z"/>
<path d="M6245 6139 c-150 -22 -245 -98 -245 -196 0 -48 22 -78 66 -89 29 -7
65 8 132 59 41 30 48 32 131 32 77 0 93 -3 151 -32 80 -40 167 -124 210 -205
36 -67 79 -94 131 -83 73 16 90 103 37 195 -45 79 -189 221 -264 258 -112 56
-234 78 -349 61z"/>
<path d="M3959 5275 c-62 -20 -129 -92 -158 -171 -29 -76 -26 -213 6 -285 82
-183 281 -212 393 -57 94 130 73 362 -41 464 -63 57 -126 72 -200 49z"/>
<path d="M6160 5269 c-43 -17 -89 -58 -116 -104 -101 -173 -51 -411 102 -485
64 -32 148 -25 207 16 83 59 137 193 123 312 -13 108 -87 227 -163 258 -37 16
-117 17 -153 3z"/>
<path d="M5005 4739 c-174 -26 -301 -93 -345 -185 -32 -66 -25 -196 14 -273
53 -103 153 -176 288 -210 70 -18 73 -20 76 -50 8 -81 -104 -225 -225 -289
-89 -47 -147 -62 -239 -62 -124 0 -224 41 -281 117 -59 78 -89 103 -125 103
-66 0 -108 -61 -88 -128 63 -222 387 -353 683 -276 88 23 161 58 270 130 l98
66 99 -65 c222 -145 433 -189 630 -131 189 55 360 243 316 347 -18 44 -56 63
-103 51 -27 -7 -48 -24 -82 -67 -89 -113 -179 -152 -331 -145 -87 4 -107 9
-175 41 -129 62 -256 205 -258 293 -1 19 2 36 5 39 3 3 30 12 62 20 128 33
243 121 293 224 24 49 28 68 28 146 0 81 -3 95 -28 138 -51 87 -150 138 -312
163 -99 15 -179 16 -270 3z"/>
</g>
</svg>
